<svg xmlns="http://www.w3.org/2000/svg" viewBox="0 0 60 60" width="60" height="60" preserveAspectRatio="xMidYMid meet" style="width: 100%; height: 100%; transform: translate3d(0px, 0px, 0px);"><defs><clipPath id="__lottie_element_2"><rect width="60" height="60" x="0" y="0"/></clipPath><mask id="__lottie_element_3" mask-type="alpha"><g style="displa    y: block;" transform="matrix(1,0,0,1,29.875,29.875)" opacity="1"><g opacity="1" transform="matrix(1,0,0,1,0,0)"><path fill="rgb(39,172,255)" fill-opacity="1" d=" M0,-30 C16.55699920654297,-30 30,-16.55699920654297 30,0 C30,16.55699920654297 16.55699920654297,30 0,30 C-16.55699920654297,30 -30,16.55699920654297 -30,0 C-30,-16.55699920654297 -16.55699920654297,-30 0,-30z"/></g></g></mask></defs><g clip-path="url(#__lottie_element_2)"><g mask="url(#__lottie_element_3)" style="display: block;"><g transform="matrix(1,0,0,1,0,0)" opacity="1"><g opacity="1" transform="matrix(1,0,0,1,30,30)"><path fill="rgb(4,226,255)" fill-opacity="1" d=" M1,-12 C1,-12 1,12 1,12 C1,12 -4,12 -4,12 C-4,12 -4,-7 -4,-7 C-4,-7 -16,-7 -16,-7 C-16,-7 -16,-12 -16,-12 C-16,-12 1,-12 1,-12z M16,-12 C16,-12 16,-6 16,-6 C16,-6 13,-6 13,-6 C13,-6 7,-12 7,-12 C7,-12 16,-12 16,-12z"/></g></g></g></g></svg>